<svg width="130" height="129" viewBox="0 0 130 129" fill="none" xmlns="http://www.w3.org/2000/svg">
    <circle cx="65" cy="64.5" r="64.5" fill="#F4F8FF"/>
    <g clip-path="url(#ks7nelby1a)" fill-rule="evenodd" clip-rule="evenodd" fill="#377DFF">
        <path d="M67.368 82.5c-.75-11.401-10.236-20.417-21.827-20.417-1.498 0-2.961.15-4.375.438V50.417a5.833 5.833 0 0 1 5.833-5.834h40.834a5.833 5.833 0 0 1 5.833 5.834v26.25a5.833 5.833 0 0 1-5.833 5.833H67.368zm17.97-32.551-17.922 9.65-17.921-9.65A2.188 2.188 0 0 0 47.42 53.8l18.958 10.208a2.187 2.187 0 0 0 2.074 0l18.958-10.208a2.187 2.187 0 1 0-2.074-3.852z"/>
        <path opacity=".3" d="M52.834 79.583a2.917 2.917 0 0 1 2.917 2.917v8.75a2.917 2.917 0 0 1-2.917 2.917H38.251a2.917 2.917 0 0 1-2.917-2.917V82.5a2.917 2.917 0 0 1 2.917-2.917v-1.458a7.292 7.292 0 1 1 14.583 0v1.458zm-7.292-5.833a4.375 4.375 0 0 0-4.375 4.375v1.458h8.75v-1.458a4.375 4.375 0 0 0-4.375-4.375z"/>
    </g>
    <defs>
        <clipPath id="ks7nelby1a">
            <path fill="#fff" transform="translate(29.5 30)" d="M0 0h70v70H0z"/>
        </clipPath>
    </defs>
</svg>
