<svg width="102" height="86" viewBox="0 0 102 86" fill="none" xmlns="http://www.w3.org/2000/svg">
    <mask id="jrdzp7iwra" style="mask-type:luminance" maskUnits="userSpaceOnUse" x="0" y="0" width="102" height="86">
        <path fill-rule="evenodd" clip-rule="evenodd" d="M101.161.045H.727v85.7h100.434V.044z" fill="#fff"/>
    </mask>
    <g mask="url(#jrdzp7iwra)">
        <path fill-rule="evenodd" clip-rule="evenodd" d="M100.688-86.526c55.243 0 100.028 38.577 100.028 86.164 0 47.586-44.785 86.163-100.028 86.163C45.444 85.802.66 47.225.66-.361c0-47.587 44.784-86.164 100.028-86.164zm0 .114C45.518-86.412.794-47.886.794-.362c0 47.523 44.724 86.049 99.894 86.049 55.17 0 99.894-38.526 99.894-86.05 0-47.523-44.724-86.049-99.894-86.049zm.284 5.915c51.221 0 92.744 35.878 92.744 80.135 0 44.257-41.523 80.134-92.744 80.134-51.222 0-92.744-35.877-92.744-80.134 0-44.258 41.522-80.135 92.744-80.135zm0 .112c-51.15 0-92.614 35.827-92.614 80.023 0 44.195 41.464 80.022 92.614 80.022 51.149 0 92.614-35.827 92.614-80.022 0-44.195-41.465-80.023-92.614-80.023zM186.716-.606c0-40.792-38.388-73.861-85.744-73.861-47.355 0-85.745 33.069-85.745 73.86 0 40.793 38.39 73.86 85.745 73.86 47.356 0 85.744-33.067 85.744-73.86zm-171.362 0c0-40.732 38.333-73.752 85.618-73.752s85.617 33.02 85.617 73.752c0 40.731-38.331 73.75-85.617 73.75-47.285 0-85.618-33.019-85.618-73.75zm85.24-67.343c43.28 0 78.366 30.223 78.366 67.505s-35.086 67.505-78.366 67.505S22.227 36.838 22.227-.444s35.086-67.505 78.367-67.505zm-.001.107c-43.211 0-78.242 30.175-78.242 67.398s35.03 67.398 78.242 67.398 78.243-30.175 78.243-67.398-35.031-67.398-78.243-67.398zM172.149-.281c0-33.951-31.825-61.475-71.083-61.475-39.258 0-71.083 27.523-71.083 61.475s31.825 61.476 71.083 61.476c39.258 0 71.083-27.524 71.083-61.476zm-142.044 0c0-33.894 31.77-61.37 70.961-61.37s70.962 27.476 70.962 61.37-31.771 61.371-70.962 61.371S30.104 33.614 30.104-.28zm70.962-55.283c35.287 0 63.894 24.678 63.894 55.12 0 30.442-28.607 55.12-63.894 55.12-35.288 0-63.895-24.677-63.895-55.12 0-30.442 28.607-55.12 63.895-55.12zm0 .102c-35.223 0-63.777 24.633-63.777 55.019s28.554 55.017 63.777 55.017c35.222 0 63.775-24.632 63.775-55.017 0-30.386-28.553-55.019-63.775-55.019zm56.326 55.1c0-26.977-25.345-48.846-56.61-48.846-31.266 0-56.611 21.869-56.611 48.846 0 26.976 25.345 48.846 56.611 48.846 31.265 0 56.61-21.87 56.61-48.846zm-113.106 0c0-26.922 25.294-48.747 56.496-48.747 31.201 0 56.495 21.825 56.495 48.747s-25.294 48.747-56.495 48.747c-31.202 0-56.496-21.825-56.496-48.747zm56.496-42.654c27.294 0 49.422 19.097 49.422 42.654 0 23.556-22.128 42.653-49.422 42.653-27.295 0-49.422-19.096-49.422-42.653s22.127-42.654 49.422-42.654zm0 .097c-27.233 0-49.31 19.053-49.31 42.557 0 23.503 22.077 42.557 49.31 42.557S150.092 23.14 150.092-.362c0-23.504-22.076-42.557-49.309-42.557zM143.016-.525c0-20.137-18.908-36.461-42.233-36.461-23.325 0-42.233 16.324-42.233 36.461 0 20.137 18.908 36.46 42.233 36.46 23.324 0 42.233-16.323 42.233-36.46zm-84.357 0c0-20.085 18.86-36.367 42.124-36.367 23.264 0 42.123 16.282 42.123 36.367 0 20.084-18.859 36.367-42.123 36.367-23.265 0-42.124-16.282-42.124-36.367zm42.029-29.943c19.302 0 34.95 13.515 34.95 30.187s-15.648 30.187-34.95 30.187c-19.302 0-34.95-13.515-34.95-30.187s15.648-30.187 34.95-30.187zm0 .091c-19.244 0-34.843 13.474-34.843 30.096s15.6 30.096 34.843 30.096c19.243 0 34.843-13.475 34.843-30.096 0-16.621-15.6-30.096-34.843-30.096zM128.449-.28c0-13.252-12.471-23.995-27.856-23.995-15.384 0-27.855 10.743-27.855 23.995s12.471 23.995 27.855 23.995c15.385 0 27.856-10.743 27.856-23.995zm-55.608 0c0-13.203 12.425-23.906 27.753-23.906 15.327 0 27.752 10.703 27.752 23.906s-12.425 23.906-27.752 23.906c-15.328 0-27.753-10.703-27.753-23.906zm28.131-17.965c11.309 0 20.477 7.934 20.477 17.721 0 9.787-9.168 17.72-20.477 17.72-11.31 0-20.478-7.933-20.478-17.72 0-9.786 9.17-17.72 20.478-17.72zm0 .086c-11.253 0-20.377 7.896-20.377 17.635 0 9.74 9.123 17.634 20.377 17.634s20.377-7.895 20.377-17.634-9.123-17.635-20.377-17.635zM113.693-.362c0-6.277-5.908-11.366-13.194-11.366-7.287 0-13.194 5.088-13.194 11.366 0 6.276 5.907 11.365 13.194 11.365 7.286 0 13.194-5.089 13.194-11.365zm-26.29 0c0-6.231 5.862-11.282 13.096-11.282 7.233 0 13.097 5.051 13.097 11.282 0 6.23-5.865 11.281-13.097 11.281-7.233 0-13.097-5.05-13.097-11.281zm13.19-5.173c3.369 0 6.1 2.352 6.1 5.254 0 2.902-2.731 5.254-6.1 5.254-3.369 0-6.1-2.352-6.1-5.254 0-2.902 2.731-5.254 6.1-5.254zm0 .081c-3.317 0-6.005 2.316-6.005 5.173 0 2.858 2.688 5.173 6.005 5.173 3.317 0 6.006-2.316 6.006-5.173s-2.689-5.173-6.006-5.173z" fill="url(#t86xqr943b)"/>
    </g>
    <defs>
        <linearGradient id="t86xqr943b" x1="107.516" y1="61.86" x2="21.531" y2="77.58" gradientUnits="userSpaceOnUse">
            <stop stop-color="#2E2C34" stop-opacity=".242"/>
            <stop offset="1" stop-color="#F2F0FF"/>
        </linearGradient>
    </defs>
</svg>
