<svg width="129" height="129" viewBox="0 0 129 129" fill="none" xmlns="http://www.w3.org/2000/svg">
    <circle cx="64.5" cy="64.5" r="64.5" fill="#F4F8FF"/>
    <path opacity=".3" d="M44.218 90.52c-.698 0-1.397-.279-1.956-.838l-5.59-5.59c-1.118-1.118-1.118-2.795 0-3.913 1.118-1.118 2.934-1.118 3.913 0l3.633 3.633 9.224-9.224c1.118-1.117 2.795-1.117 3.914 0 1.118 1.119 1.118 2.796 0 3.914l-11.181 11.18c-.559.56-1.258.839-1.957.839z" fill="#377DFF"/>
    <path fill-rule="evenodd" clip-rule="evenodd" d="M67.87 82.5c-.751-11.401-10.237-20.417-21.828-20.417-1.498 0-2.961.15-4.375.438V50.417a5.833 5.833 0 0 1 5.833-5.834h40.834a5.833 5.833 0 0 1 5.833 5.834v26.25a5.833 5.833 0 0 1-5.833 5.833H67.869zm17.968-32.551-17.921 9.65-17.921-9.65a2.188 2.188 0 0 0-2.074 3.852L66.88 64.009a2.187 2.187 0 0 0 2.074 0l18.958-10.208a2.188 2.188 0 0 0-2.074-3.852z" fill="#377DFF"/>
</svg>
