<svg width="17" height="16" viewBox="0 0 17 16" fill="none" xmlns="http://www.w3.org/2000/svg">
    <path d="M14.5 5.333c-.967 0-1.507.96-1.287 1.674L10.847 9.38c-.2-.06-.494-.06-.694 0l-1.7-1.7C8.68 6.967 8.14 6 7.167 6 6.2 6 5.653 6.96 5.88 7.68l-3.04 3.033c-.713-.22-1.673.32-1.673 1.287 0 .733.6 1.333 1.333 1.333.967 0 1.507-.96 1.287-1.673L6.82 8.62c.2.06.493.06.693 0l1.7 1.7c-.226.713.314 1.68 1.287 1.68.967 0 1.513-.96 1.287-1.68l2.373-2.367c.713.22 1.673-.32 1.673-1.286 0-.734-.6-1.334-1.333-1.334z" fill="#84818A"/>
    <path d="m10.5 6 .627-1.38L12.5 4l-1.373-.62L10.5 2l-.613 1.38L8.5 4l1.387.62L10.5 6zM2.833 7.333 3.167 6 4.5 5.667l-1.333-.334L2.833 4 2.5 5.333l-1.333.334L2.5 6l.333 1.333z" fill="#84818A"/>
</svg>
