<svg width="150" height="40" viewBox="0 0 150 40" fill="none" xmlns="http://www.w3.org/2000/svg">
    <path d="M40.446 32.5v-9.6h1.077v9.6h-1.077zM43.124 32.5v-9.6h1.457l6.935 8.373V22.9h1.064v9.6h-1.458l-6.935-8.373V32.5h-1.063zM57.78 32.5v-8.52h-4.202V22.9h9.456v1.08h-4.19v8.52h-1.063zM64.043 32.5v-9.6h8.628v1.08h-7.565v3.173h6.081v1.094h-6.08v3.173h7.564v1.08h-8.628zM74.085 32.5v-9.613h1.064v8.533h8.392v1.08h-9.456zM84.32 32.5v-9.613h1.064v8.533h8.392v1.08H84.32zM94.673 32.5v-9.6h1.077v9.6h-1.077zM98.926 32.5c-.289 0-.556-.071-.801-.213a1.599 1.599 0 0 1-.565-.574 1.63 1.63 0 0 1-.21-.813v-6.4c0-.293.07-.56.21-.8.14-.249.329-.444.565-.587.245-.142.512-.213.801-.213h6.304c.289 0 .552.071.788.213.245.143.438.338.578.587.14.24.21.507.21.8v.387h-1.064V24.5a.472.472 0 0 0-.157-.36.461.461 0 0 0-.355-.16h-6.304a.5.5 0 0 0-.368.16.493.493 0 0 0-.144.36v6.4a.54.54 0 0 0 .144.373.523.523 0 0 0 .368.147h6.304a.48.48 0 0 0 .355-.147.515.515 0 0 0 .157-.373v-2.373h-2.337v-1.094h3.401V30.9c0 .293-.07.564-.21.813-.14.24-.333.431-.578.574a1.498 1.498 0 0 1-.788.213h-6.304zM108.278 32.5v-9.6h8.629v1.08h-7.565v3.173h6.081v1.094h-6.081v3.173h7.565v1.08h-8.629zM118.307 32.5v-9.6h1.458l6.934 8.373V22.9h1.064v9.6h-1.458l-6.934-8.373V32.5h-1.064zM130.811 32.5c-.289 0-.556-.071-.802-.213a1.6 1.6 0 0 1-.564-.574c-.14-.249-.21-.52-.21-.813v-6.4c0-.293.07-.56.21-.8a1.57 1.57 0 0 1 .564-.587c.246-.142.513-.213.802-.213h7.853v1.08h-7.853a.5.5 0 0 0-.368.16.491.491 0 0 0-.145.36v6.4c0 .142.048.267.145.373a.522.522 0 0 0 .368.147h7.853v1.08h-7.853zM140.06 32.5v-9.6h8.629v1.08h-7.565v3.173h6.08v1.094h-6.08v3.173h7.565v1.08h-8.629z" fill="#5A5A5A"/>
    <path d="M40.341 17.5V9.873c0-.364.088-.693.263-.986.175-.303.411-.543.709-.72.298-.178.622-.267.972-.267h5.555c.36 0 .683.089.972.267.298.177.534.417.71.72.183.293.275.622.275.986V17.5h-2.062v-3.093h-5.358V17.5H40.34zm2.036-5.173h5.358V9.98h-5.358v2.347zM62.312 17.5l-2.744-3.32h2.666l2.18 2.613v.707h-2.102zm-7.341 0V7.913h7.499c.359 0 .683.09.972.267.298.178.534.418.71.72.183.302.275.631.275.987v2.48c0 .355-.092.684-.276.986a1.98 1.98 0 0 1-.71.72 1.817 1.817 0 0 1-.971.267l-5.463.013V17.5H54.97zm2.036-5.24h5.358V9.98h-5.358v2.28zM72.717 17.5V9.98h-3.704V7.9h9.456v2.08h-3.704v7.52h-2.048zM83.142 17.5V7.9h2.035v3.76h5.582V7.9h2.036v9.6h-2.036v-3.76h-5.582v3.76h-2.035zM105.319 17.5l-2.745-3.32h2.666l2.18 2.613v.707h-2.101zm-7.342 0V7.913h7.499c.359 0 .683.09.972.267.298.178.534.418.709.72.184.302.276.631.276.987v2.48c0 .355-.092.684-.276.986a1.977 1.977 0 0 1-.709.72 1.818 1.818 0 0 1-.972.267l-5.463.013V17.5h-2.036zm2.036-5.24h5.358V9.98h-5.358v2.28zM112.164 17.5V7.9h2.009v9.6h-2.009zM122.465 17.5V9.98h-3.703V7.9h9.456v2.08h-3.704v7.52h-2.049zM132.549 17.5V7.9h2.01v9.6h-2.01zM141.281 17.5c-.35 0-.674-.089-.972-.267a1.985 1.985 0 0 1-.972-1.706v-.894h2.036v.787h5.358v-1.68h-5.45c-.35 0-.674-.089-.972-.267a2.02 2.02 0 0 1-.709-.706 1.96 1.96 0 0 1-.263-1V9.873c0-.364.088-.693.263-.986.175-.303.412-.543.709-.72.298-.178.622-.267.972-.267h5.569c.35 0 .669.089.958.267.298.177.534.417.71.72.183.293.275.622.275.986v.894h-2.062V9.98h-5.358v1.68h5.477c.35 0 .669.089.958.267.298.177.534.417.71.72.183.293.275.622.275.986v1.894c0 .355-.092.684-.275.986a1.988 1.988 0 0 1-.71.72 1.792 1.792 0 0 1-.958.267h-5.569z" fill="#1A1A1A"/>
    <path fill-rule="evenodd" clip-rule="evenodd" d="M14.482 2.773a5.793 5.793 0 0 1 5.784 0l10.454 5.98c1.948 1.113 3.16 3.258 3.16 5.59v11.315c0 2.331-1.212 4.476-3.16 5.59l-10.454 5.979a5.793 5.793 0 0 1-5.783 0l-10.454-5.98C2.08 30.135.869 27.99.869 25.658V14.343c0-2.331 1.212-4.476 3.16-5.59l10.454-5.979z" fill="#00A8DD"/>
    <path d="M21.598 11.762a8.885 8.885 0 0 1 3.047 3.293.5.5 0 0 0-.227.66 8.922 8.922 0 0 1 .844 3.809c0 1.37-.304 2.663-.844 3.808a.5.5 0 0 0 .227.66 8.885 8.885 0 0 1-3.047 3.293.5.5 0 0 0-.673-.182 7.678 7.678 0 0 1-3.735.968 7.677 7.677 0 0 1-3.734-.968.5.5 0 0 0-.673.182 8.885 8.885 0 0 1-3.047-3.293.5.5 0 0 0 .227-.66 8.923 8.923 0 0 1-.844-3.808c0-1.37.304-2.664.844-3.81a.5.5 0 0 0-.227-.659 8.885 8.885 0 0 1 3.047-3.293.5.5 0 0 0 .673.182 7.676 7.676 0 0 1 3.734-.968c1.348 0 2.618.35 3.735.968a.5.5 0 0 0 .672-.182z" stroke="#fff" stroke-linecap="round" stroke-linejoin="round" stroke-dasharray="30 20"/>
    <mask id="0oqxrwk1na" style="mask-type:alpha" maskUnits="userSpaceOnUse" x="0" y="2" width="34" height="36">
        <path fill-rule="evenodd" clip-rule="evenodd" d="M14.482 2.773a5.793 5.793 0 0 1 5.784 0l10.454 5.98c1.948 1.113 3.16 3.258 3.16 5.59v11.315c0 2.331-1.212 4.476-3.16 5.59l-10.454 5.979a5.793 5.793 0 0 1-5.784 0L4.03 31.247C2.08 30.135.869 27.99.869 25.658V14.343c0-2.331 1.212-4.476 3.16-5.59l10.453-5.979z" fill="#00A8DD"/>
    </mask>
    <g mask="url(#0oqxrwk1na)">
        <path d="M12.36 22.5h9.85v15.417h-9.85V22.5z" fill="url(#wlp8fjpnib)"/>
    </g>
    <g filter="url(#trvimmvu7c)">
        <path d="M23.661 19.628c0 3.65-2.814 6.61-6.287 6.61-3.472 0-6.286-2.96-6.286-6.61 0-3.651 2.814-6.61 6.287-6.61 3.472 0 6.286 2.959 6.286 6.61z" fill="#FBFAFC"/>
    </g>
    <path d="M32.557 6.4a4.05 4.05 0 1 1-8.1 0 4.05 4.05 0 0 1 8.1 0z" fill="#239C41"/>
    <path fill-rule="evenodd" clip-rule="evenodd" d="M28.507 2.8a3.6 3.6 0 1 0 0 7.2 3.6 3.6 0 0 0 0-7.2zm-4.5 3.6a4.5 4.5 0 1 1 9 0 4.5 4.5 0 0 1-9 0z" fill="#fff"/>
    <path fill-rule="evenodd" clip-rule="evenodd" d="m28.062 5.955-.89-2.669.043-.014.89 2.669-.043.014zM29.182 6.32l2.662.908-.014.043-2.663-.907.015-.043zM28.848 5.82l2.348-1.55.025.038-2.348 1.55-.025-.038zM28.988 6.88l2.669.89.014-.042-2.669-.89-.014.043zM27.876 6.431l-2.323 1.585.025.038 2.324-1.586-.026-.037zM28.194 6.954l-.169 2.808.045.003.169-2.808-.045-.003z" fill="#fff" fill-opacity=".27"/>
    <path fill-rule="evenodd" clip-rule="evenodd" d="m29.024 6.845.89 2.668-.043.015-.89-2.67.043-.013zM27.904 6.479l-2.662-.908.014-.042 2.663.907-.015.043zM28.238 6.98 25.89 8.53l-.024-.038 2.347-1.55.025.037zM28.098 5.919l-2.668-.89-.014.043 2.668.89.014-.043zM29.21 6.369l2.323-1.586-.025-.037-2.323 1.586.025.037zM28.892 5.846l.17-2.808-.046-.003-.168 2.808.044.003z" fill="#fff" fill-opacity=".27"/>
    <defs>
        <linearGradient id="wlp8fjpnib" x1="17.285" y1="22.5" x2="17.285" y2="37.917" gradientUnits="userSpaceOnUse">
            <stop offset=".339" stop-color="#FBFAFC"/>
            <stop offset="1" stop-color="#FBFAFC" stop-opacity="0"/>
        </linearGradient>
        <filter id="trvimmvu7c" x="7.088" y="13.017" width="20.574" height="21.221" filterUnits="userSpaceOnUse" color-interpolation-filters="sRGB">
            <feFlood flood-opacity="0" result="BackgroundImageFix"/>
            <feColorMatrix in="SourceAlpha" values="0 0 0 0 0 0 0 0 0 0 0 0 0 0 0 0 0 0 127 0" result="hardAlpha"/>
            <feOffset dy="4"/>
            <feGaussianBlur stdDeviation="2"/>
            <feComposite in2="hardAlpha" operator="out"/>
            <feColorMatrix values="0 0 0 0 0 0 0 0 0 0 0 0 0 0 0 0 0 0 0.01 0"/>
            <feBlend in2="BackgroundImageFix" result="effect1_dropShadow_87_13068"/>
            <feBlend in="SourceGraphic" in2="effect1_dropShadow_87_13068" result="shape"/>
        </filter>
    </defs>
</svg>
