<svg width="17" height="16" viewBox="0 0 17 16" fill="none" xmlns="http://www.w3.org/2000/svg">
    <path d="M9.167 5.333a2.666 2.666 0 1 0-5.334 0 2.666 2.666 0 1 0 5.334 0zm-1.334 0c0 .734-.6 1.334-1.333 1.334s-1.333-.6-1.333-1.334C5.167 4.6 5.767 4 6.5 4s1.333.6 1.333 1.333zM1.167 12v1.333h10.666V12c0-1.773-3.553-2.667-5.333-2.667-1.78 0-5.333.894-5.333 2.667zM2.5 12c.133-.473 2.2-1.333 4-1.333 1.793 0 3.853.853 4 1.333h-8zm11.333-2V8h2V6.667h-2v-2H12.5v2h-2V8h2v2h1.333z" fill="#727272"/>
</svg>
