<svg width="17" height="16" viewBox="0 0 17 16" fill="none" xmlns="http://www.w3.org/2000/svg">
<path d="M9.16669 5.33341C9.16669 3.86008 7.97335 2.66675 6.50002 2.66675C5.02669 2.66675 3.83335 3.86008 3.83335 5.33341C3.83335 6.80675 5.02669 8.00008 6.50002 8.00008C7.97335 8.00008 9.16669 6.80675 9.16669 5.33341ZM7.83335 5.33341C7.83335 6.06675 7.23335 6.66675 6.50002 6.66675C5.76669 6.66675 5.16669 6.06675 5.16669 5.33341C5.16669 4.60008 5.76669 4.00008 6.50002 4.00008C7.23335 4.00008 7.83335 4.60008 7.83335 5.33341ZM1.16669 12.0001V13.3334H11.8334V12.0001C11.8334 10.2267 8.28002 9.33341 6.50002 9.33341C4.72002 9.33341 1.16669 10.2267 1.16669 12.0001ZM2.50002 12.0001C2.63335 11.5267 4.70002 10.6667 6.50002 10.6667C8.29335 10.6667 10.3534 11.5201 10.5 12.0001H2.50002ZM13.8334 10.0001V8.00008H15.8334V6.66675H13.8334V4.66675H12.5V6.66675H10.5V8.00008H12.5V10.0001H13.8334Z" fill="#00A8DD"/>
</svg>
