<svg width="32" height="32" viewBox="0 0 32 32" fill="none" xmlns="http://www.w3.org/2000/svg">
    <path d="M25.333 4H19.76C19.2 2.454 17.733 1.333 16 1.333c-1.733 0-3.2 1.12-3.76 2.667H6.667A2.675 2.675 0 0 0 4 6.667v18.666C4 26.8 5.2 28 6.667 28h18.666C26.8 28 28 26.8 28 25.334V6.666C28 5.2 26.8 4 25.333 4zM16 4c.733 0 1.333.6 1.333 1.333 0 .734-.6 1.334-1.333 1.334s-1.333-.6-1.333-1.333C14.667 4.6 15.267 4 16 4zm2.667 18.667H9.333V20h9.334v2.667zm4-5.334H9.333v-2.666h13.334v2.667zm0-5.333H9.333V9.334h13.334V12z" fill="#00A8DD"/>
</svg>
